<?xml version="1.0" standalone="no"?>
<!DOCTYPE svg PUBLIC "-//W3C//DTD SVG 20010904//EN"
 "http://www.w3.org/TR/2001/REC-SVG-20010904/DTD/svg10.dtd">
<svg version="1.0" xmlns="http://www.w3.org/2000/svg"
 width="400.000000pt" height="400.000000pt" viewBox="0 0 400.000000 400.000000"
 preserveAspectRatio="xMidYMid meet">
<metadata>
Created by potrace 1.14, written by Peter Selinger 2001-2017
</metadata>
<g transform="translate(0.000000,400.000000) scale(0.100000,-0.100000)"
fill="#000000" stroke="none">
<path d="M480 3279 c-235 -61 -411 -240 -465 -474 -12 -49 -15 -239 -15 -1083
l0 -1023 1592 4 c876 1 1602 5 1613 9 11 3 34 9 50 13 181 41 344 132 476 265
128 129 206 275 255 475 4 17 9 246 11 510 3 510 0 552 -47 688 -91 262 -327
496 -585 581 -166 54 -49 50 -1485 52 -1282 2 -1327 2 -1400 -17z m928 -528
c9 -1 6 -13 -9 -43 -12 -24 -21 -45 -20 -48 0 -3 -5 -27 -13 -55 -8 -27 -17
-68 -21 -89 -3 -22 -7 -42 -10 -44 -2 -2 -182 -4 -401 -3 -448 1 -440 -1 -480
78 -42 82 -8 167 78 196 24 9 157 12 448 10 228 0 421 -1 428 -2z m-76 -716
c0 -55 -1 -118 -1 -140 l-1 -40 -392 1 c-258 1 -402 5 -420 12 -36 15 -77 72
-81 113 -6 64 21 113 78 143 26 14 83 16 424 14 l394 -3 -1 -100z m-70 -505
l77 0 7 -47 c4 -27 20 -88 35 -136 16 -49 29 -92 29 -95 0 -4 -195 -7 -433 -6
-460 1 -465 2 -508 50 -35 40 -43 98 -20 148 39 88 54 91 426 89 171 -1 345
-2 387 -3z"/>
</g>
</svg>
